<svg xmlns="http://www.w3.org/2000/svg" enable-background="new 0 0 24 24" viewBox="0 0 24 24" id="code-sandbox">
  <path fill="#1C2022" d="M22.5,17.95L22.41,6L11.955,0L1.5,6v12l10.455,6L22.5,17.95L22.5,17.95z M20.327,13.239L16.982,15.1v3.514L13.01,20.91v-8.272l7.318-4.157V13.239L20.327,13.239z M10.905,20.91l-3.973-2.296v-3.516l-3.345-1.861V8.481l7.318,4.157V20.91L10.905,20.91z M4.634,6.601L4.633,6.6l3.913-2.255l3.431,1.968l3.409-1.945l3.871,2.197l-7.32,4.18L4.634,6.601L4.634,6.601z"></path>
  <path fill="#393D3F" d="M13.01,20.91v-8.272l7.318-4.157v4.758L16.982,15.1v3.514L13.01,20.91L13.01,20.91z M12,0.026V6.3l3.386-1.932l3.871,2.197L12,10.709v13.265l10.5-6.024L22.41,6L12,0.026L12,0.026z"></path>
</svg>
